<?xml version="1.0" encoding="UTF-8" standalone="no"?>
<!DOCTYPE svg PUBLIC "-//W3C//DTD SVG 1.1//EN" "http://www.w3.org/Graphics/SVG/1.1/DTD/svg11.dtd">
<svg version="1.1" xmlns="http://www.w3.org/2000/svg" xmlns:xlink="http://www.w3.org/1999/xlink" preserveAspectRatio="xMidYMid meet" viewBox="0 0 640 640" width="640" height="640"><defs><path d="M100 40C66.88 40 40 66.88 40 100C40 144 40 496 40 540C40 573.13 66.88 600 100 600C144 600 496 600 540 600C573.13 600 600 573.13 600 540C600 496 600 144 600 100C600 66.88 573.13 40 540 40C452 40 144 40 100 40ZM220 480C216 480 184 480 180 480C168.95 480 160 471.05 160 460C160 444 160 316 160 300C160 288.95 168.95 280 180 280C184 280 216 280 220 280C231.05 280 240 288.95 240 300C240 310.67 240 364 240 460C234.03 473.33 227.37 480 220 480ZM340 480C336 480 304 480 300 480C288.95 480 280 471.05 280 460C280 432 280 208 280 180C280 168.95 288.95 160 300 160C304 160 336 160 340 160C351.05 160 360 168.95 360 180C360 198.67 360 292 360 460C354.03 473.33 347.37 480 340 480ZM460 480C456 480 424 480 420 480C408.95 480 400 471.05 400 460C400 452 400 388 400 380C400 368.95 408.95 360 420 360C424 360 456 360 460 360C471.05 360 480 368.95 480 380C480 385.33 480 412 480 460C474.03 473.33 467.37 480 460 480Z" id="ac66Cc1IS"></path></defs><g><g><g><use xlink:href="#ac66Cc1IS" opacity="1" fill="#000000" fill-opacity="0.29"></use><g><use xlink:href="#ac66Cc1IS" opacity="1" fill-opacity="0" stroke="#000000" stroke-width="1" stroke-opacity="0"></use></g></g></g></g></svg>